<?xml version="1.0" encoding="utf-8"?>
<!-- Generator: Adobe Illustrator 27.8.0, SVG Export Plug-In . SVG Version: 6.00 Build 0)  -->
<svg version="1.1" id="Ebene_1" xmlns="http://www.w3.org/2000/svg" xmlns:xlink="http://www.w3.org/1999/xlink" x="0px" y="0px"
	 viewBox="0 0 79.9 125.1" style="enable-background:new 0 0 79.9 125.1;" xml:space="preserve">
<style type="text/css">
	.st0{fill-rule:evenodd;clip-rule:evenodd;fill:#FFFFFF;}
</style>
<g>
	<g>
		<g>
			<path class="st0" d="M14,101.8l-13.2,7.5v1.2l24.9,14.1V95.3C21.8,97.4,17.9,99.6,14,101.8"/>
			<path class="st0" d="M0.8,77.6v28.2C23.4,93,45.9,80.2,68.5,67.4l8.4-4.8L65,55.8l-12.9-7.3C35,58.2,17.9,67.9,0.8,77.6"/>
			<path class="st0" d="M18.1,0.5C9,0.7,0.9,8.1,0.8,17.5v22.3c0.9-1.9,2.5-4.2,4.5-6c5.9-5.2,15-6.5,22.2-2.5l0,0
				c3.7,2,7.3,4.1,11,6.1l1.6,0.9c0,0,9.9,5.5,18.2,10.2c6.9,3.9,13.8,7.8,20.8,11.8l0.2-27.9C62,22.5,44.7,12.5,27.3,2.8
				c-2.1-1.1-3-1.4-4.5-1.8C21.3,0.7,20.4,0.5,18.1,0.5"/>
			<path class="st0" d="M18.3,31.9c-8,0.1-14.9,6.3-17.5,14.2L25.6,56V33.8C23.4,32.6,20.9,31.9,18.3,31.9"/>
		</g>
	</g>
</g>
</svg>
